<svg xmlns="http://www.w3.org/2000/svg" data-name="Layer 1" viewBox="0 0 250 250"><path d="M23.09 141.24c1-12.66.75-25.38 1.77-38 .25-3.13-2.94-6.13-6-6a6.15 6.15 0 00-6 6c-1 12.65-.75 25.37-1.77 38-.26 3.13 2.94 6.13 6 6a6.16 6.16 0 006-6z"/><path d="M19.46 107.9l20.76.4a6.06 6.06 0 006-6 6.15 6.15 0 00-6-6l-20.76-.4a6 6 0 00-6 6 6.11 6.11 0 006 6z"/><path d="M46.27 104.77c3-6.52 4.88-13.41 7.65-20l-.61 1.43c.23-.54.47-1.08.71-1.61a6.59 6.59 0 00.6-4.63 6.13 6.13 0 00-2.75-3.58c-2.63-1.39-6.83-.9-8.21 2.15-2.95 6.52-4.89 13.41-7.65 20l.61-1.43c-.23.54-.47 1.08-.71 1.61a6.49 6.49 0 00-.61 4.63 6.08 6.08 0 002.76 3.58c2.63 1.39 6.83.9 8.21-2.15z"/><path d="M53.32 75.7a95.52 95.52 0 01-13.54-14.24l.94 1.21c-.6-.79-1.2-1.59-1.78-2.39a6.51 6.51 0 00-3.59-2.76 6.16 6.16 0 00-4.62.61A6 6 0 0028 61.71a5.83 5.83 0 00.61 4.63 101.37 101.37 0 0016.22 17.84 6.41 6.41 0 004.25 1.76 6 6 0 004.24-10.24z"/><path d="M38.18 66a181.5 181.5 0 0113.74-14q3.59-3.27 7.34-6.33L61 44.26l1.06-.84c.19-.14 1.39-1.13.22-.16 1.27-1 2.64-2 4-3A6.48 6.48 0 0069 36.71a6.23 6.23 0 00-.6-4.63c-1.62-2.51-5.5-4.12-8.21-2.15a186.26 186.26 0 00-30.5 27.59c-2.07 2.35-2.49 6.2 0 8.48 2.31 2.09 6.31 2.52 8.49 0z"/><path d="M60.11 39.38l15.32 15.83a6 6 0 008.48-8.48L68.6 30.89a6 6 0 10-8.49 8.49z"/><path d="M83.45 56.21c3.87-1.44 7.64-3.16 11.38-4.92 1.65-.77 3.3-1.55 5-2.29l1.39-.62c1.08-.47-1.21.49 0 0 1-.38 1.91-.76 2.88-1.12a6.52 6.52 0 003.58-2.76 6.07 6.07 0 00.61-4.62c-.93-2.88-4.23-5.36-7.38-4.19-3.91 1.43-7.64 3.15-11.38 4.91-1.66.78-3.32 1.55-5 2.3l-1.39.61c-1.08.48 1.21-.49 0 0-1 .39-1.91.77-2.87 1.13a6.47 6.47 0 00-3.59 2.76 6 6 0 00-.6 4.62c.93 2.87 4.23 5.36 7.38 4.19z"/><path d="M108.55 40.1l2.21-21.58a6 6 0 00-10.25-4.25 6.87 6.87 0 00-1.75 4.25L96.55 40.1a6 6 0 0010.23 4.25 6.85 6.85 0 001.77-4.25z"/><path d="M105.7 24.35l39.94-1.59c3.13-.13 6.15-2.67 6-6-.14-3.15-2.64-6.14-6-6l-39.94 1.59c-3.13.12-6.15 2.67-6 6 .14 3.14 2.64 6.13 6 6z"/><path d="M141.24 17.73V38.5a6 6 0 0012 0V17.73a6 6 0 10-12 0z"/><path d="M144.85 44.75l18.4 11.13a6 6 0 006.06-10.36L150.9 34.39a6 6 0 10-6.71 10 5.47 5.47 0 00.71.41z"/><path d="M171.42 53.9q8.49-6.65 16.87-13.43a6 6 0 001.71-4.24 6.19 6.19 0 00-1.71-4.23 6 6 0 00-4.29-1.77 6.83 6.83 0 00-4.2 1.77q-8.38 6.78-16.88 13.42a6 6 0 000 8.49 5.92 5.92 0 004.25 1.75l1.59-.21a6.12 6.12 0 002.65-1.54z"/><path d="M181.22 41.28c10 8.53 19.13 17.94 29.1 26.46 2.38 2 6.18 2.52 8.48 0 2.06-2.24 2.55-6.31 0-8.48-10-8.53-19.13-17.94-29.1-26.46-2.38-2-6.17-2.52-8.48 0-2.06 2.2-2.55 6.3 0 8.48z"/><path d="M210.32 59.26l-16.68 16.07a6 6 0 008.49 8.49l16.67-16.08a6 6 0 00-8.18-8.74 2.12 2.12 0 00-.3.3z"/><path d="M194.09 83.79c1 1.63 2 3.3 2.83 5 .47.92.91 1.84 1.33 2.77.11.24.28 1 .47 1.06-.36-.85-.41-1-.16-.37.09.23.19.47.28.71a69.28 69.28 0 013.31 11 6 6 0 007.38 4.19 6.16 6.16 0 004.2-7.38 73.08 73.08 0 00-9.28-23.07c-1.65-2.67-5.43-3.94-8.2-2.15a6.1 6.1 0 00-2.16 8.21z"/><path d="M208.75 108.36c3.86.3 7.71.7 11.57.92s7.73.16 11.6 0c3.13-.13 6.14-2.67 6-6-.15-3.14-2.65-6.14-6-6-3.87.16-7.74.22-11.6 0s-7.71-.62-11.57-.92c-3.14-.24-6.14 2.94-6 6a6.12 6.12 0 006 6z"/><path d="M226.93 106.38c0 6.36-.32 12.7-.81 19a115.26 115.26 0 00-.51 14.15c.14 3.13 2.65 6.15 6 6 3.13-.14 6.15-2.64 6-6a115.26 115.26 0 01.51-14.15c.49-6.34.83-12.68.81-19a6 6 0 00-12 0zM17.09 147.24l20.76-.45c3.13-.06 6.14-2.71 6-6a6.11 6.11 0 00-6-6l-20.76.45c-3.14.06-6.15 2.71-6 6a6.1 6.1 0 006 6z"/><path d="M32.93 143.08c3 7.1 4.78 14.63 7.75 21.73a6.67 6.67 0 002.76 3.59 6.11 6.11 0 004.62.6 6 6 0 003.59-2.76 5.8 5.8 0 00.61-4.62c-3-7.1-4.78-14.63-7.76-21.73a6.7 6.7 0 00-2.75-3.59 6.14 6.14 0 00-4.63-.6 6 6 0 00-3.58 2.75 5.75 5.75 0 00-.61 4.63z"/><path d="M42.47 160.72a107.66 107.66 0 00-16.26 19.19 6 6 0 002.15 8.21 6.15 6.15 0 008.21-2.12c1.31-2 2.69-3.88 4.13-5.75l-.94 1.21A101.87 101.87 0 0151 169.2a6 6 0 000-8.48 6.14 6.14 0 00-8.53 0z"/><path d="M27.32 188.85a184.33 184.33 0 0029.3 28.8 6.46 6.46 0 004.25 1.76 6.07 6.07 0 004.24-1.76c2-2.16 2.64-6.42 0-8.48a186 186 0 01-29.3-28.8c-2-2.45-6.45-2.23-8.49 0-2.38 2.63-2.12 5.87 0 8.48z"/><path d="M66.23 217.63c5.43-6 11.88-11.07 17.32-17.12a6.37 6.37 0 001.75-4.24 6.2 6.2 0 00-1.75-4.27c-2.3-2.1-6.25-2.49-8.49 0-5.44 6-11.88 11.07-17.32 17.11a6.31 6.31 0 00-1.74 4.27 6.1 6.1 0 001.76 4.25c2.29 2.1 6.24 2.49 8.49 0z"/><path d="M78.89 203.73l21.58 8.58a6 6 0 006.78-8.81 7 7 0 00-3.59-2.76l-21.58-8.58a6 6 0 00-6.8 8.8 6.89 6.89 0 003.59 2.76z"/><path d="M96.18 208c.7 7.76-.49 15.55.21 23.32a6.27 6.27 0 001.76 4.24 6.07 6.07 0 004.24 1.76c3-.13 6.3-2.65 6-6-.7-7.77.49-15.56-.21-23.32a6.55 6.55 0 00-1.76-4.25 6.14 6.14 0 00-4.24-1.75c-3 .13-6.3 2.65-6 6z"/><path d="M103.33 237.52l39.94 1.72a6 6 0 006-6 6.15 6.15 0 00-6-6l-39.94-1.72a6 6 0 00-6 6 6.11 6.11 0 006 6z"/><path d="M150.87 232.19v-22.44a6 6 0 00-12 0v22.44a6 6 0 0012 0z"/><path d="M148.53 213.77l18.41-12c2.62-1.72 4-5.4 2.15-8.21-1.69-2.62-5.4-4-8.21-2.16l-18.4 12c-2.63 1.71-4 5.39-2.16 8.21 1.69 2.62 5.4 4 8.21 2.15z"/><path d="M160.56 201.93a66.87 66.87 0 0018.09 15.45 6 6 0 006.06-10.38 59.52 59.52 0 01-6.45-4.33l1.21.93A62.86 62.86 0 01169 193.45a6 6 0 00-4.24-1.76 6.18 6.18 0 00-4.25 1.76 6 6 0 00-1.75 4.24 6.75 6.75 0 001.75 4.24z"/><path d="M187.33 215.57L214 191a6 6 0 000-8.48 6.13 6.13 0 00-8.48 0l-26.69 24.61a6 6 0 000 8.49 6.13 6.13 0 008.48 0z"/><path d="M215.43 179.49c-5.57-5.82-10.45-12.25-15.67-18.37a6 6 0 00-8.56 8.41.23.23 0 00.07.07c5.22 6.13 10.11 12.56 15.68 18.37a6 6 0 108.78-8.18l-.3-.3z"/><path d="M202.09 167.11a81.71 81.71 0 009.27-24.82c.59-3.07-.87-6.63-4.2-7.38-3-.68-6.73.89-7.38 4.19a79.32 79.32 0 01-3.3 11.91 21.42 21.42 0 01-1.14 2.91c.76-1.38.08-.21-.05.1l-.69 1.52a77.95 77.95 0 01-2.88 5.51 6 6 0 1010.37 6.06z"/><path d="M206.38 146.73c4.28-.4 8.57-.87 12.87-1.06 4.11-.18 8.24-.1 12.36-.1a6 6 0 000-12c-4.12 0-8.25-.08-12.36.1-4.3.19-8.59.66-12.87 1.06-3.12.28-6.16 2.55-6 6 .13 3 2.62 6.27 6 6zM117.25 90.74c1.28-.24 2.55-.44 3.83-.64.57-.09.58-.36-.36.05a4.27 4.27 0 01.81-.11c.66-.08 1.31-.15 2-.21a63.51 63.51 0 016.47-.27c1 0 1.95.06 2.92.14a7.37 7.37 0 011.32.12l.65.08c-1.88-.12-.78-.11-.31 0a36.1 36.1 0 015.42 1.26c.78.25 1.53.54 2.29.84s-.56-.24-.59-.26c.22.12.47.21.69.31l1.37.67a39.18 39.18 0 014.63 2.82c.35.24.69.5 1 .75.93.68-.94-.76-.32-.25l.51.4c.78.63 1.54 1.29 2.28 2s1.51 1.4 2.22 2.15c.34.36.67.73 1 1.1s.78 1.21 1.18 1.43c-.77-.42-.62-.82-.15-.18l.44.6a39.521 39.521 0 012.61 4.28l.66 1.32c.11.23.22.45.32.68s.5 1.28.15.3.25.65.32.84c.22.58.42 1.17.61 1.76a41.73 41.73 0 011.54 6.33 4.57 4.57 0 00.12.74c-.45-1.37-.12-.86 0-.3A10.21 10.21 0 01163 121c.09 1.17.13 2.36.12 3.54a23.09 23.09 0 01-.13 3c0 .56-.09 1.12-.17 1.67-.09.8.2-1.29.06-.49-.07.37-.12.74-.19 1.1A39 39 0 01161 136c-.16.46-.34.91-.52 1.37-.45 1.18.46-1 .11-.26l-.3.67q-.75 1.59-1.59 3.09c-.48.84-1 1.68-1.53 2.49q-.45.69-.93 1.35l-.43.59c-.59.8-.21 0 .16-.19a6.43 6.43 0 00-1 1.27c-.35.42-.72.83-1.09 1.23-.74.82-1.52 1.6-2.32 2.35s-1.53 1.4-2.34 2.06l-.57.47c-.65.53 1.22-.9.2-.16l-1.34 1a45.65 45.65 0 01-5.51 3.27c-.5.25-1 .48-1.49.71-.22.11-.45.2-.67.3-.77.36 1.43-.56.25-.1-1 .4-2.06.78-3.11 1.12a43.78 43.78 0 01-6.38 1.5c-.24 0-1.1.17-.14 0s-.18 0-.34 0l-1.51.14c-1.14.08-2.28.12-3.42.11a29 29 0 01-3.23-.12 13.77 13.77 0 01-1.7-.16l-.76-.09c1.81.17.46.05.09 0a44.73 44.73 0 01-6.47-1.53c-1-.32-2-.67-3-1.07-.23-.09-.47-.2-.7-.28 1.41.49.72.31.38.16-.57-.26-1.15-.53-1.72-.81a43.2 43.2 0 01-5.86-3.47c-.41-.29-.8-.63-1.22-.9.1.07 1.1.88.32.24l-.59-.48c-.87-.73-1.72-1.5-2.53-2.3s-1.58-1.63-2.31-2.49c-.33-.38-.62-.79-1-1.17 1.18 1.31-.13-.2-.41-.6a39.49 39.49 0 01-3.34-5.68c-.25-.5-.48-1-.72-1.53-.15-.35-.3-1 .17.39-.08-.24-.19-.47-.28-.7q-.61-1.59-1.11-3.21c-.33-1.09-.61-2.18-.85-3.29-.11-.49-.21-1-.3-1.48a6.37 6.37 0 00-.13-.74c-.08-.49 0-1.55 0 .1 0-2.19-.4-4.36-.34-6.57a28.3 28.3 0 01.21-3.18 6.36 6.36 0 00.08-.75c.1 1.17-.14 1-.06.48s.21-1.24.33-1.85a40.23 40.23 0 011.86-6.42c.18-.46.5-.62-.18.43.11-.22.2-.44.29-.67.2-.44.41-.87.63-1.3a33.83 33.83 0 011.68-3c.54-.87 1.13-1.71 1.73-2.54.21-.29.71-.83-.28.35l.45-.57q.57-.69 1.17-1.38a41.84 41.84 0 014.71-4.51c.19-.15.39-.29.57-.45-.08.07-1.16.86-.35.28l1.17-.85c.9-.62 1.82-1.2 2.76-1.75s1.9-1 2.88-1.52c.43-.2.88-.38 1.31-.59-1.67.82.12 0 .58-.21a37.38 37.38 0 016.07-1.68c.53-.1 1.08-.16 1.6-.27-.09 0-1.54.17-.52.08l.72-.08c1.08-.1 2.17-.14 3.25-.14a6 6 0 000-12C99.78 78.58 80.6 94 76.53 114.16a49.52 49.52 0 004 31.24A46.74 46.74 0 00102 166.9a52.85 52.85 0 0031.25 4.89A50.31 50.31 0 00160 158.46a47.48 47.48 0 0014.29-25.71 48.61 48.61 0 00-4.67-30.87 47 47 0 00-20-19.59c-8.31-4.23-17.58-5.34-26.78-4.4-3 .3-5.93.74-8.86 1.28-3.09.57-5.13 4.48-4.19 7.38a6.16 6.16 0 007.38 4.19z"/></svg>
